<svg viewBox="0 0 1400 900" xmlns="http://www.w3.org/2000/svg">
  <!-- Background -->
  <rect width="1400" height="900" fill="#f5f5f5"/>
  
  <!-- Title -->
  <text x="700" y="35" font-family="Arial, sans-serif" font-size="24" font-weight="bold" text-anchor="middle" fill="#333">
    Healthcare Survey Analysis Dashboard
  </text>
  
  <!-- Left Sidebar -->
  <rect x="20" y="60" width="320" height="820" fill="#c8e6c9" stroke="#333" stroke-width="2"/>
  
  <!-- Sidebar Title -->
  <text x="180" y="90" font-family="Arial, sans-serif" font-size="18" font-weight="bold" text-anchor="middle" fill="#333">
    Global Controls
  </text>
  
  <!-- Global Filters Section -->
  <text x="40" y="125" font-family="Arial, sans-serif" font-size="16" font-weight="bold" fill="#333">
    Filter
  </text>
  
  <!-- Province Dropdown -->
  <text x="40" y="150" font-family="Arial, sans-serif" font-size="13" fill="#555">Province</text>
  <rect x="40" y="160" width="280" height="30" fill="white" stroke="#666" stroke-width="1" rx="3"/>
  <text x="50" y="180" font-family="Arial, sans-serif" font-size="12" fill="#888">Select Province...</text>
  <polygon points="310,170 310,180 300,175" fill="#666"/>
  
  <!-- Age Slider -->
  <text x="40" y="210" font-family="Arial, sans-serif" font-size="13" fill="#555">Age</text>
  <line x1="50" y1="230" x2="310" y2="230" stroke="#666" stroke-width="2"/>
  <circle cx="120" cy="230" r="6" fill="#1976d2"/>
  <circle cx="240" cy="230" r="6" fill="#1976d2"/>
  
  <!-- Gender Dropdown -->
  <text x="40" y="265" font-family="Arial, sans-serif" font-size="13" fill="#555">Gender</text>
  <rect x="40" y="275" width="280" height="30" fill="white" stroke="#666" stroke-width="1" rx="3"/>
  <polygon points="310,285 310,295 300,290" fill="#666"/>
  
  <!-- Income Dropdown -->
  <text x="40" y="325" font-family="Arial, sans-serif" font-size="13" fill="#555">Total Income</text>
  <rect x="40" y="335" width="280" height="30" fill="white" stroke="#666" stroke-width="1" rx="3"/>
  <polygon points="310,345 310,355 300,350" fill="#666"/>
  
  <!-- Immigrant Status -->
  <text x="40" y="385" font-family="Arial, sans-serif" font-size="13" fill="#555">Immigrant Status</text>
  <rect x="40" y="395" width="280" height="30" fill="white" stroke="#666" stroke-width="1" rx="3"/>
  <polygon points="310,405 310,415 300,410" fill="#666"/>
  
  <!-- Aboriginal Identity -->
  <text x="40" y="445" font-family="Arial, sans-serif" font-size="13" fill="#555">Aboriginal Identity</text>
  <rect x="40" y="455" width="280" height="30" fill="white" stroke="#666" stroke-width="1" rx="3"/>
  <polygon points="310,465 310,475 300,470" fill="#666"/>
  
  <!-- Variable Toggles Section -->
  <line x1="40" y1="510" x2="320" y2="510" stroke="#666" stroke-width="1"/>
  
  <text x="40" y="540" font-family="Arial, sans-serif" font-size="16" font-weight="bold" fill="#333">
    Variable Toggles
  </text>
  
  <!-- Outcome Variable -->
  <text x="40" y="565" font-family="Arial, sans-serif" font-size="13" fill="#555">Outcome Variable</text>
  <rect x="40" y="575" width="280" height="30" fill="white" stroke="#666" stroke-width="1" rx="3"/>
  <text x="50" y="595" font-family="Arial, sans-serif" font-size="11" fill="#888">General health state</text>
  <polygon points="310,585 310,595 300,590" fill="#666"/>
  
  <!-- Behavior Variable -->
  <text x="40" y="625" font-family="Arial, sans-serif" font-size="13" fill="#555">Behavior Variable</text>
  <rect x="40" y="635" width="280" height="30" fill="white" stroke="#666" stroke-width="1" rx="3"/>
  <text x="50" y="655" font-family="Arial, sans-serif" font-size="11" fill="#888">Physical activity time</text>
  <polygon points="310,645 310,655 300,650" fill="#666"/>
  
  <!-- Reset Button -->
  <rect x="105" y="700" width="150" height="40" fill="#ff5722" stroke="#333" stroke-width="2" rx="5"/>
  <text x="180" y="725" font-family="Arial, sans-serif" font-size="14" font-weight="bold" text-anchor="middle" fill="white">
    RESET FILTERS
  </text>
  
  <!-- Annotation arrows and labels for sidebar -->
  <text x="350" y="100" font-family="Comic Sans MS, cursive" font-size="14" font-style="italic" fill="#000">
    Dropdown
  </text>
  <path d="M 345 105 L 330 165" stroke="#000" stroke-width="2" fill="none" marker-end="url(#arrowhead)"/>
  
  <text x="350" y="220" font-family="Comic Sans MS, cursive" font-size="14" font-style="italic" fill="#000">
    Slider
  </text>
  <path d="M 345 225 L 315 230" stroke="#000" stroke-width="2" fill="none" marker-end="url(#arrowhead)"/>
  
  <text x="350" y="575" font-family="Comic Sans MS, cursive" font-size="14" font-style="italic" fill="#000">
    Toggle
  </text>
  <path d="M 345 580 L 330 590" stroke="#000" stroke-width="2" fill="none" marker-end="url(#arrowhead)"/>
  
  <!-- Main Visualization Area - 2x3 Grid -->
  
  <!-- Panel 1: Health Outcome Distribution -->
  <rect x="380" y="60" width="320" height="360" fill="white" stroke="#333" stroke-width="2"/>
  <rect x="380" y="60" width="320" height="30" fill="#90caf9" stroke="#333" stroke-width="2"/>
  <text x="540" y="81" font-family="Arial, sans-serif" font-size="13" font-weight="bold" text-anchor="middle" fill="#333">
    ① Health Outcome Distribution
  </text>
  <!-- Stacked bars -->
  <rect x="420" y="240" width="40" height="130" fill="#1976d2"/>
  <rect x="420" y="190" width="40" height="50" fill="#ef5350"/>
  <rect x="480" y="220" width="40" height="150" fill="#1976d2"/>
  <rect x="480" y="170" width="40" height="50" fill="#ef5350"/>
  <rect x="540" y="200" width="40" height="170" fill="#1976d2"/>
  <rect x="540" y="150" width="40" height="50" fill="#ef5350"/>
  <rect x="600" y="250" width="40" height="120" fill="#1976d2"/>
  <rect x="600" y="200" width="40" height="50" fill="#ef5350"/>
  <!-- Axes -->
  <line x1="410" y1="375" x2="660" y2="375" stroke="#333" stroke-width="2"/>
  <line x1="410" y1="140" x2="410" y2="375" stroke="#333" stroke-width="2"/>
  <!-- Axis labels -->
  <text x="535" y="395" font-family="Arial, sans-serif" font-size="11" text-anchor="middle" fill="#333">Health Outcome Level</text>
  <text x="390" y="260" font-family="Arial, sans-serif" font-size="11" text-anchor="middle" fill="#333" transform="rotate(-90 390 260)">Percentage (%)</text>
  
  <!-- Panel 2: Behavior × Outcome -->
  <rect x="720" y="60" width="320" height="360" fill="white" stroke="#333" stroke-width="2"/>
  <rect x="720" y="60" width="320" height="30" fill="#90caf9" stroke="#333" stroke-width="2"/>
  <text x="880" y="81" font-family="Arial, sans-serif" font-size="13" font-weight="bold" text-anchor="middle" fill="#333">
    ② Behavior × Outcome
  </text>
  <!-- Scatter plot points -->
  <circle cx="780" cy="280" r="6" fill="#1976d2"/>
  <circle cx="820" cy="240" r="8" fill="#ef5350"/>
  <circle cx="850" cy="200" r="7" fill="#1976d2"/>
  <circle cx="890" cy="260" r="9" fill="#ef5350"/>
  <circle cx="920" cy="180" r="7" fill="#1976d2"/>
  <circle cx="950" cy="220" r="8" fill="#ef5350"/>
  <circle cx="980" cy="190" r="6" fill="#1976d2"/>
  <circle cx="800" cy="300" r="7" fill="#ef5350"/>
  <circle cx="870" cy="250" r="6" fill="#1976d2"/>
  <circle cx="940" cy="210" r="8" fill="#ef5350"/>
  <!-- Trend line -->
  <line x1="770" y1="320" x2="1000" y2="160" stroke="#666" stroke-width="2" stroke-dasharray="5,5"/>
  <!-- Axes -->
  <line x1="760" y1="375" x2="1010" y2="375" stroke="#333" stroke-width="2"/>
  <line x1="760" y1="160" x2="760" y2="375" stroke="#333" stroke-width="2"/>
  <!-- Axis labels -->
  <text x="885" y="395" font-family="Arial, sans-serif" font-size="11" text-anchor="middle" fill="#333">Physical Activity (min/week)</text>
  <text x="740" y="270" font-family="Arial, sans-serif" font-size="11" text-anchor="middle" fill="#333" transform="rotate(-90 740 270)">Health Utility Index</text>
  
  <!-- Panel 3: Chronic Condition Prevalence -->
  <rect x="1060" y="60" width="320" height="360" fill="white" stroke="#333" stroke-width="2"/>
  <rect x="1060" y="60" width="320" height="30" fill="#90caf9" stroke="#333" stroke-width="2"/>
  <text x="1220" y="81" font-family="Arial, sans-serif" font-size="13" font-weight="bold" text-anchor="middle" fill="#333">
    ③ Chronic Condition Matrix
  </text>
  <!-- Heatmap -->
  <rect x="1100" y="140" width="55" height="45" fill="#ffcdd2"/>
  <rect x="1165" y="140" width="55" height="45" fill="#ef9a9a"/>
  <rect x="1230" y="140" width="55" height="45" fill="#e57373"/>
  <rect x="1295" y="140" width="55" height="45" fill="#ef5350"/>
  <rect x="1100" y="195" width="55" height="45" fill="#e57373"/>
  <rect x="1165" y="195" width="55" height="45" fill="#ef5350"/>
  <rect x="1230" y="195" width="55" height="45" fill="#f44336"/>
  <rect x="1295" y="195" width="55" height="45" fill="#e53935"/>
  <rect x="1100" y="250" width="55" height="45" fill="#ffcdd2"/>
  <rect x="1165" y="250" width="55" height="45" fill="#ef9a9a"/>
  <rect x="1230" y="250" width="55" height="45" fill="#ef5350"/>
  <rect x="1295" y="250" width="55" height="45" fill="#e57373"/>
  <rect x="1100" y="305" width="55" height="45" fill="#ef9a9a"/>
  <rect x="1165" y="305" width="55" height="45" fill="#e57373"/>
  <rect x="1230" y="305" width="55" height="45" fill="#ffcdd2"/>
  <rect x="1295" y="305" width="55" height="45" fill="#ef5350"/>
  <!-- Axis labels -->
  <text x="1127" y="130" font-family="Arial, sans-serif" font-size="9" text-anchor="middle" fill="#333">HBP</text>
  <text x="1192" y="130" font-family="Arial, sans-serif" font-size="9" text-anchor="middle" fill="#333">Diabetes</text>
  <text x="1257" y="130" font-family="Arial, sans-serif" font-size="9" text-anchor="middle" fill="#333">Mood</text>
  <text x="1322" y="130" font-family="Arial, sans-serif" font-size="9" text-anchor="middle" fill="#333">Anxiety</text>
  <text x="1085" y="167" font-family="Arial, sans-serif" font-size="9" text-anchor="end" fill="#333">Low Income</text>
  <text x="1085" y="222" font-family="Arial, sans-serif" font-size="9" text-anchor="end" fill="#333">Med Income</text>
  <text x="1085" y="277" font-family="Arial, sans-serif" font-size="9" text-anchor="end" fill="#333">High Income</text>
  <text x="1085" y="332" font-family="Arial, sans-serif" font-size="9" text-anchor="end" fill="#333">Insured</text>
  <text x="1220" y="375" font-family="Arial, sans-serif" font-size="11" text-anchor="middle" fill="#333">Chronic Condition</text>
  <text x="1050" y="250" font-family="Arial, sans-serif" font-size="11" text-anchor="middle" fill="#333" transform="rotate(-90 1050 250)">Income/Insurance Group</text>
  
  <!-- Panel 4: Social Determinants -->
  <rect x="380" y="440" width="320" height="360" fill="white" stroke="#333" stroke-width="2"/>
  <rect x="380" y="440" width="320" height="30" fill="#90caf9" stroke="#333" stroke-width="2"/>
  <text x="540" y="461" font-family="Arial, sans-serif" font-size="13" font-weight="bold" text-anchor="middle" fill="#333">
    ④ Social Determinants
  </text>
  <!-- Grouped bars -->
  <rect x="430" y="620" width="30" height="130" fill="#1976d2"/>
  <rect x="465" y="650" width="30" height="100" fill="#ef5350"/>
  <rect x="520" y="570" width="30" height="180" fill="#1976d2"/>
  <rect x="555" y="600" width="30" height="150" fill="#ef5350"/>
  <rect x="610" y="640" width="30" height="110" fill="#1976d2"/>
  <rect x="645" y="670" width="30" height="80" fill="#ef5350"/>
  <!-- Axes -->
  <line x1="420" y1="755" x2="680" y2="755" stroke="#333" stroke-width="2"/>
  <line x1="420" y1="540" x2="420" y2="755" stroke="#333" stroke-width="2"/>
  <!-- Axis labels -->
  <text x="550" y="775" font-family="Arial, sans-serif" font-size="11" text-anchor="middle" fill="#333">Food Security Level</text>
  <text x="400" y="650" font-family="Arial, sans-serif" font-size="11" text-anchor="middle" fill="#333" transform="rotate(-90 400 650)">Mental Health Score</text>
  
  <!-- Panel 5: Work Stress × Substance Use -->
  <rect x="720" y="440" width="320" height="360" fill="white" stroke="#333" stroke-width="2"/>
  <rect x="720" y="440" width="320" height="30" fill="#90caf9" stroke="#333" stroke-width="2"/>
  <text x="880" y="461" font-family="Arial, sans-serif" font-size="12" font-weight="bold" text-anchor="middle" fill="#333">
    ⑤ Work Stress × Substance Use
  </text>
  <!-- Bubble chart -->
  <circle cx="790" cy="680" r="18" fill="#1976d2" opacity="0.6"/>
  <circle cx="840" cy="630" r="24" fill="#ef5350" opacity="0.6"/>
  <circle cx="880" cy="580" r="15" fill="#1976d2" opacity="0.6"/>
  <circle cx="920" cy="660" r="21" fill="#ef5350" opacity="0.6"/>
  <circle cx="960" cy="600" r="17" fill="#1976d2" opacity="0.6"/>
  <circle cx="990" cy="550" r="19" fill="#ef5350" opacity="0.6"/>
  <circle cx="810" cy="720" r="16" fill="#1976d2" opacity="0.6"/>
  <circle cx="870" cy="640" r="20" fill="#ef5350" opacity="0.6"/>
  <circle cx="940" cy="590" r="14" fill="#1976d2" opacity="0.6"/>
  <!-- Axes -->
  <line x1="770" y1="755" x2="1010" y2="755" stroke="#333" stroke-width="2"/>
  <line x1="770" y1="530" x2="770" y2="755" stroke="#333" stroke-width="2"/>
  <!-- Axis labels -->
  <text x="890" y="775" font-family="Arial, sans-serif" font-size="11" text-anchor="middle" fill="#333">Work Stress Level</text>
  <text x="750" y="645" font-family="Arial, sans-serif" font-size="11" text-anchor="middle" fill="#333" transform="rotate(-90 750 645)">Alcohol Use Frequency</text>
  
  <!-- Panel 6: Risk Ranking -->
  <rect x="1060" y="440" width="320" height="360" fill="white" stroke="#333" stroke-width="2"/>
  <rect x="1060" y="440" width="320" height="30" fill="#90caf9" stroke="#333" stroke-width="2"/>
  <text x="1220" y="461" font-family="Arial, sans-serif" font-size="13" font-weight="bold" text-anchor="middle" fill="#333">
    ⑥ Risk Ranking Panel
  </text>
  <!-- Horizontal bars -->
  <rect x="1180" y="530" width="160" height="35" fill="#ef5350"/>
  <text x="1110" y="550" font-family="Arial, sans-serif" font-size="11" fill="#333">Province A</text>
  <rect x="1180" y="580" width="130" height="35" fill="#ff7043"/>
  <text x="1110" y="600" font-family="Arial, sans-serif" font-size="11" fill="#333">Province B</text>
  <rect x="1180" y="630" width="100" height="35" fill="#ffb74d"/>
  <text x="1110" y="650" font-family="Arial, sans-serif" font-size="11" fill="#333">Province C</text>
  <rect x="1180" y="680" width="70" height="35" fill="#81c784"/>
  <text x="1110" y="700" font-family="Arial, sans-serif" font-size="11" fill="#333">Province D</text>
  <!-- Axes -->
  <line x1="1175" y1="525" x2="1350" y2="525" stroke="#333" stroke-width="1"/>
  <line x1="1175" y1="525" x2="1175" y2="720" stroke="#333" stroke-width="2"/>
  <!-- Axis labels -->
  <text x="1260" y="745" font-family="Arial, sans-serif" font-size="11" text-anchor="middle" fill="#333">Risk Score (%)</text>
  <text x="1155" y="625" font-family="Arial, sans-serif" font-size="11" text-anchor="middle" fill="#333" transform="rotate(-90 1155 625)">Demographic Group</text>
  
  <!-- Legend at bottom -->
  <rect x="380" y="820" width="1000" height="60" fill="white" stroke="#333" stroke-width="2"/>
  <text x="390" y="840" font-family="Arial, sans-serif" font-size="14" font-weight="bold" fill="#333">
    Legend:
  </text>
  <rect x="450" y="830" width="25" height="18" fill="#1976d2"/>
  <text x="485" y="843" font-family="Arial, sans-serif" font-size="12" fill="#333">Low Income</text>
  <rect x="600" y="830" width="25" height="18" fill="#ef5350"/>
  <text x="635" y="843" font-family="Arial, sans-serif" font-size="12" fill="#333">High Income</text>
  <rect x="450" y="855" width="25" height="18" fill="#ffb74d"/>
  <text x="485" y="868" font-family="Arial, sans-serif" font-size="12" fill="#333">Medium Risk</text>
  <rect x="600" y="855" width="25" height="18" fill="#81c784"/>
  <text x="635" y="868" font-family="Arial, sans-serif" font-size="12" fill="#333">Low Risk</text>
  <circle cx="800" cy="839" r="8" fill="#1976d2" opacity="0.6"/>
  <text x="820" y="843" font-family="Arial, sans-serif" font-size="12" fill="#333">Immigrant</text>
  <circle cx="930" cy="839" r="8" fill="#ef5350" opacity="0.6"/>
  <text x="950" y="843" font-family="Arial, sans-serif" font-size="12" fill="#333">Non-Immigrant</text>
  <text x="800" y="868" font-family="Arial, sans-serif" font-size="11" fill="#666">*Bubble size = Life Satisfaction</text>
  
  <!-- Annotation arrows -->
  <text x="1090" y="850" font-family="Comic Sans MS, cursive" font-size="14" font-style="italic" fill="#000">
    Hover Tooltip
  </text>
  <path d="M 1140 845 L 1200 770" stroke="#000" stroke-width="2" fill="none" marker-end="url(#arrowhead)"/>
  
  <text x="230" y="720" font-family="Comic Sans MS, cursive" font-size="14" font-style="italic" fill="#000">
    Brush Selection
  </text>
  <path d="M 320 715 L 420 680" stroke="#000" stroke-width="2" fill="none" marker-end="url(#arrowhead)"/>
  
  <text x="550" y="850" font-family="Comic Sans MS, cursive" font-size="14" font-style="italic" fill="#000">
    Interactive Charts
  </text>
  <path d="M 620 845 L 680 800" stroke="#000" stroke-width="2" fill="none" marker-end="url(#arrowhead)"/>
  
  <text x="730" y="430" font-family="Comic Sans MS, cursive" font-size="14" font-style="italic" fill="#000">
    Linked Visualizations (2×3 Grid)
  </text>
  <path d="M 870 425 L 900 420" stroke="#000" stroke-width="2" fill="none" marker-end="url(#arrowhead)"/>
  
  <!-- Scroll bar indicator -->
  <rect x="1365" y="440" width="15" height="360" fill="#ddd" stroke="#999" stroke-width="1" rx="7"/>
  <rect x="1367" y="480" width="11" height="120" fill="#999" rx="5"/>
  <text x="1290" y="850" font-family="Comic Sans MS, cursive" font-size="14" font-style="italic" fill="#000">
    Scroll Bar
  </text>
  <path d="M 1350 845 L 1370 750" stroke="#000" stroke-width="2" fill="none" marker-end="url(#arrowhead)"/>
  
  <!-- Arrow marker definition -->
  <defs>
    <marker id="arrowhead" markerWidth="10" markerHeight="10" refX="9" refY="3" orient="auto">
      <polygon points="0 0, 10 3, 0 6" fill="#000"/>
    </marker>
  </defs>
  
  <!-- Tooltip example -->
  <rect x="750" y="690" width="140" height="50" fill="white" stroke="#333" stroke-width="2" rx="5"/>
  <line x1="750" y1="705" x2="890" y2="705" stroke="#ddd" stroke-width="1"/>
  <text x="760" y="702" font-family="Arial, sans-serif" font-size="10" fill="#333">Province: BC</text>
  <text x="760" y="718" font-family="Arial, sans-serif" font-size="10" fill="#333">Count: 2,543</text>
  <text x="760" y="734" font-family="Arial, sans-serif" font-size="10" fill="#333">Percentage: 23.4%</text>
  
</svg>